<!DOCTYPE svg  PUBLIC '-//W3C//DTD SVG 1.1//EN'  'http://www.w3.org/Graphics/SVG/1.1/DTD/svg11.dtd'>
<svg clip-rule="evenodd" fill-rule="evenodd" stroke-linecap="round" stroke-linejoin="round" stroke-miterlimit="1.5" version="1.1" viewBox="0 0 128 128" xmlns="http://www.w3.org/2000/svg"><g transform="translate(-1.9946)"><path d="m101.49 9.18c0-1.656-1.343-3-3-3h-64.262c-1.656 0-3 1.344-3 3v109.64c0 1.656 1.344 3 3 3h51.262c8.837 0 16-7.164 16-16v-96.64z" fill="#d8d6d1" stroke="#000" stroke-width="1px"/><g transform="matrix(1 0 5.5511e-17 1 0 .34429)"><path d="m31.5 12.156h69.989" fill="none" stroke="#b9b4ad" stroke-width="1px"/></g><path d="M72.2,121.82L101.489,106" fill="none" stroke="#f2ebe2" stroke-width="1px"/><g transform="translate(-.95405)"><path d="M96.408,6.18L96.5,12.5" fill="none" stroke="#b9b4ad" stroke-width="1px"/></g><g transform="translate(-59.954)"><path d="M96.408,6.18L96.5,12.5" fill="none" stroke="#b9b4ad" stroke-width="1px"/></g><path d="m101.49 9.5c0-0.796-0.316-1.559-0.878-2.121-0.563-0.563-1.326-0.879-2.122-0.879h-64.989c-0.796 0-1.559 0.316-2.121 0.879-0.563 0.562-0.879 1.325-0.879 2.121v109c0 0.796 0.316 1.559 0.879 2.121 0.562 0.563 1.325 0.879 2.121 0.879h51.989c8.837 0 16-7.163 16-16v-96z" fill="none" stroke="#000" stroke-width="3px"/><g transform="matrix(.83673 -.3777 .31287 .69311 -23.362 51.852)"><path d="m61.877 104.68c0-0.726-0.488-1.315-1.089-1.315h-6.536c-0.601 0-1.089 0.589-1.089 1.315s0.488 1.315 1.089 1.315h6.536c0.601 0 1.089-0.589 1.089-1.315z" fill="#4e5247" stroke="#000" stroke-width="1.19px"/></g><g transform="matrix(.83673 -.3777 .31287 .69311 -11.362 51.852)"><path d="m61.877 104.68c0-0.726-0.488-1.315-1.089-1.315h-6.536c-0.601 0-1.089 0.589-1.089 1.315s0.488 1.315 1.089 1.315h6.536c0.601 0 1.089-0.589 1.089-1.315z" fill="#4e5247" stroke="#000" stroke-width="1.19px"/></g><circle cx="80.996" cy="87.339" r="3.822" fill="#c11c40" stroke="#000" stroke-width="1px"/><g transform="translate(11.504 -5.7393)"><circle cx="80.996" cy="87.339" r="3.822" fill="#c11c40" stroke="#000" stroke-width="1px"/></g><g transform="translate(-3.7654 1.1875)"><path d="m79.313 108.69 5.505 9.25" fill="none" stroke="#b9b4ad" stroke-width="1px"/></g><g transform="translate(-.2654 -.5125)"><path d="m79.313 108.69 5.505 9.25" fill="none" stroke="#b9b4ad" stroke-width="1px"/></g><g transform="translate(3.2346 -2.2125)"><path d="m79.313 108.69 5.505 9.25" fill="none" stroke="#b9b4ad" stroke-width="1px"/></g><g transform="translate(6.7346 -3.9125)"><path d="m79.313 108.69 5.505 9.25" fill="none" stroke="#b9b4ad" stroke-width="1px"/></g><g transform="translate(10.235 -5.6125)"><path d="m79.313 108.69 5.505 9.25" fill="none" stroke="#b9b4ad" stroke-width="1px"/></g><g transform="translate(13.735 -7.3125)"><path d="m79.313 108.69 5.505 9.25" fill="none" stroke="#b9b4ad" stroke-width="1px"/></g><g transform="translate(0 .40778)"><path d="m96.5 18.203c0-1.104-0.895-2-2-2h-56.964c-1.105 0-2 0.896-2 2v40.778c0 1.105 0.895 2 2 2h49.964c4.971 0 9-4.029 9-9v-33.778z" fill="#848484" stroke="#000" stroke-width="1px"/></g><g transform="matrix(.98813 0 0 .99674 .59124 .25498)"><rect x="47.472" y="21.314" width="37.444" height="34.111" fill="#809a24" stroke="#000" stroke-width="1.01px"/></g><circle cx="40.583" cy="33.426" r="1.389" fill="#ff0025"/><path d="m48.5 82.456h6v5h-6v6h-5v-6h-6v-5h6v-6h5v6z" fill="#4e5247" stroke="#000" stroke-width="1px"/></g></svg>
