<!DOCTYPE svg  PUBLIC '-//W3C//DTD SVG 1.1//EN'  'http://www.w3.org/Graphics/SVG/1.1/DTD/svg11.dtd'>
<svg clip-rule="evenodd" fill-rule="evenodd" stroke-linecap="round" stroke-linejoin="round" stroke-miterlimit="1.5" version="1.1" viewBox="0 0 128 128" xmlns="http://www.w3.org/2000/svg"><g transform="translate(0 -1.1259)"><path d="m115.98 43.503 1.894-0.666s-0.87-2.15-1.894-3.481-2.356-2.151-4.25-2.867c-1.894-0.717-7.834-0.82-10.496-1.434s-7.117-1.331-8.909-1.536-1.997 1.843-1.997 1.843l25.652 8.141z" fill="#a4a6b4" stroke="#000" stroke-width="1px"/><g transform="matrix(-1 0 0 1 128 0)"><path d="m115.98 43.503 1.894-0.666s-0.87-2.15-1.894-3.481-2.356-2.151-4.25-2.867c-1.894-0.717-7.834-0.82-10.496-1.434s-7.117-1.331-8.909-1.536-1.997 1.843-1.997 1.843l25.652 8.141z" fill="#a4a6b4" stroke="#000" stroke-width="1px"/></g><g transform="translate(1.55)"><path d="m62.45 97.95c9.766 0 23.582-1.214 29.8-3.2 1.966-0.628 4.816-2.128 6.8-2.6 4.2-1 8.8-2.6 13-4 3.78-1.26 5.739-4.265 6.4-7.2 1.6-7.1-1.6-32.6-2.2-34.9s-1.2-5.1-4.2-5.7-11.4-2.6-16.4-5.2-9.5-2.5-9.5-2.5-39.5-0.333-47.4 0c0 0-4.5-0.1-9.5 2.5s-13.4 4.6-16.4 5.2-3.6 3.4-4.2 5.7-3.8 27.8-2.2 34.9c0.661 2.935 2.62 5.94 6.4 7.2 4.2 1.4 8.8 3 13 4 1.984 0.472 4.834 1.972 6.8 2.6 6.218 1.986 20.034 3.2 29.8 3.2" fill="#aa86d5" stroke="#000" stroke-width="3px"/></g><g transform="translate(.1024 -.0512)"><circle cx="100.67" cy="43.964" r=".947" fill="#a0ff2a"/></g><path d="m64 39.462c-9.152 0-23.024 1.18-25.584 1.82s-2.687 1.92-2.944 3.264c-1.152 6.016-2.713 30.078-2.048 37.608 0.221 2.507 1.28 3.935 4.16 5.151 3.43 1.448 13.536 3.52 26.416 3.52s22.986-2.072 26.416-3.52c2.88-1.216 3.939-2.644 4.16-5.151 0.665-7.53-0.896-31.592-2.048-37.608-0.257-1.344-0.384-2.624-2.944-3.264s-16.432-1.82-25.584-1.82"/><g transform="matrix(1.0064 0 0 .98449 -.23513 1.695)"><rect x="38.984" y="44.803" width="49.68" height="33.52" fill="#a4a6b4" stroke="#000" stroke-width="1px"/></g><g transform="translate(.48 .30537)"><circle cx="100.79" cy="61.303" r="3.84" fill="#a4a6b4" stroke="#000" stroke-width="1px"/></g><g transform="translate(10.2 -3.5346)"><circle cx="100.79" cy="61.303" r="3.84" fill="#a4a6b4" stroke="#000" stroke-width="1px"/></g><g transform="matrix(.97364 .22811 -.22811 .97364 17.954 -4.6988)"><path d="m29.304 77.118h-8.619c-0.994 0-1.8-0.806-1.8-1.8 0-0.993 0.806-1.8 1.8-1.8h8.619c0.993 0 1.8 0.807 1.8 1.8 0 0.994-0.807 1.8-1.8 1.8z" fill="none" stroke="#986cc4" stroke-width="1px"/></g><g transform="translate(.24 1.7764e-15)"><circle cx="29.064" cy="75.318" r="1.8" fill="#a4a6b4" stroke="#000" stroke-width="1px"/></g><g transform="translate(0 6.4648)"><g transform="matrix(.97364 .22811 -.22811 .97364 17.954 -4.6988)"><path d="m29.304 77.118h-8.619c-0.994 0-1.8-0.806-1.8-1.8 0-0.993 0.806-1.8 1.8-1.8h8.619c0.993 0 1.8 0.807 1.8 1.8 0 0.994-0.807 1.8-1.8 1.8z" fill="none" stroke="#986cc4" stroke-width="1px"/></g><g transform="translate(.24 1.7764e-15)"><circle cx="29.064" cy="75.318" r="1.8" fill="#a4a6b4" stroke="#000" stroke-width="1px"/></g></g><g transform="matrix(1.0302 0 0 1.0302 -.40806 -2.0201)"><path d="m24.051 57.052h4.98v4.6h-4.98v4.98h-4.6v-4.98h-4.98v-4.6h4.98v-4.98h4.6v4.98z" fill="#a4a6b4" stroke="#000" stroke-width=".97px"/></g><path d="m97.413 74.335 11.879-2.783" fill="none" stroke="#986cc4" stroke-width="1px"/><g transform="translate(0 2.3565)"><path d="m97.413 74.335 11.879-2.783" fill="none" stroke="#986cc4" stroke-width="1px"/></g><g transform="translate(0 4.7565)"><path d="m97.413 74.335 11.879-2.783" fill="none" stroke="#986cc4" stroke-width="1px"/></g><g transform="translate(0 7.1565)"><path d="m97.413 74.335 11.879-2.783" fill="none" stroke="#986cc4" stroke-width="1px"/></g><g transform="translate(0 9.4565)"><path d="m97.413 74.335 11.879-2.783" fill="none" stroke="#986cc4" stroke-width="1px"/></g></g></svg>
