<!DOCTYPE svg  PUBLIC '-//W3C//DTD SVG 1.1//EN'  'http://www.w3.org/Graphics/SVG/1.1/DTD/svg11.dtd'>
<svg clip-rule="evenodd" fill-rule="evenodd" stroke-linecap="round" stroke-linejoin="round" stroke-miterlimit="1.5" version="1.1" viewBox="0 0 128 128" xmlns="http://www.w3.org/2000/svg"><g transform="translate(.56925)"><path d="m96.939 8.908c0-1.885-1.531-3.416-3.416-3.416h-60.184c-1.886 0-3.416 1.531-3.416 3.416v102.84c0 1.886 1.019 5.964 3.416 6.747 5.692 1.859 16.512 4.41 30.092 4.41s24.399-2.551 30.092-4.41c2.396-0.783 3.416-4.861 3.416-6.747v-102.84z" fill="#aa86d5" stroke="#000" stroke-width="3px"/></g><g transform="matrix(1.2115 0 0 1.2115 -2.4877 -21.518)"><path d="m62.105 102.78c0-0.683-0.555-1.238-1.238-1.238h-3.668c-0.684 0-1.238 0.555-1.238 1.238 0 0.684 0.554 1.238 1.238 1.238h3.668c0.683 0 1.238-0.554 1.238-1.238z" fill="#4a454e" stroke="#000" stroke-width=".83px"/></g><g transform="matrix(1.2115 0 0 1.2115 -12.488 -21.518)"><path d="m62.105 102.78c0-0.683-0.555-1.238-1.238-1.238h-3.668c-0.684 0-1.238 0.555-1.238 1.238 0 0.684 0.554 1.238 1.238 1.238h3.668c0.683 0 1.238-0.554 1.238-1.238z" fill="#4a454e" stroke="#000" stroke-width=".83px"/></g><g transform="translate(-.37955 -.42485)"><path d="m46.76 81.045h5.12v5.76h-5.12v5.12h-5.76v-5.12h-5.12v-5.76h5.12v-5.12h5.76v5.12z" fill="#4a454e" stroke="#000" stroke-width="1px"/></g><circle cx="75.688" cy="85.781" r="4.128" fill="#4a454e" stroke="#000" stroke-width="1px"/><g transform="translate(12.212 -4)"><circle cx="75.688" cy="85.781" r="4.128" fill="#4a454e" stroke="#000" stroke-width="1px"/></g><g transform="matrix(.1547 0 0 .1547 71.836 89.27)"><circle cx="63.107" cy="92.478" r="3.232" fill="#986cc4"/></g><g transform="matrix(.1547 0 0 .1547 71.836 91.193)"><circle cx="63.107" cy="92.478" r="3.232" fill="#986cc4"/></g><g transform="matrix(.1547 0 0 .1547 71.836 93.093)"><circle cx="63.107" cy="92.478" r="3.232" fill="#986cc4"/></g><g transform="matrix(.1547 0 0 .1547 71.836 94.993)"><circle cx="63.107" cy="92.478" r="3.232" fill="#986cc4"/></g><g transform="matrix(.1547 0 0 .1547 71.836 96.893)"><circle cx="63.107" cy="92.478" r="3.232" fill="#986cc4"/></g><g transform="matrix(.1547 0 0 .1547 71.836 98.793)"><circle cx="63.107" cy="92.478" r="3.232" fill="#986cc4"/></g><g transform="matrix(.1547 0 0 .1547 71.836 100.69)"><circle cx="63.107" cy="92.478" r="3.232" fill="#986cc4"/></g><g transform="matrix(.1547 0 0 .1547 69.836 91.543)"><circle cx="63.107" cy="92.478" r="3.232" fill="#986cc4"/></g><g transform="matrix(.1547 0 0 .1547 69.836 93.443)"><circle cx="63.107" cy="92.478" r="3.232" fill="#986cc4"/></g><g transform="matrix(.1547 0 0 .1547 69.836 95.343)"><circle cx="63.107" cy="92.478" r="3.232" fill="#986cc4"/></g><g transform="matrix(.1547 0 0 .1547 69.836 97.243)"><circle cx="63.107" cy="92.478" r="3.232" fill="#986cc4"/></g><g transform="matrix(.1547 0 0 .1547 69.836 99.143)"><circle cx="63.107" cy="92.478" r="3.232" fill="#986cc4"/></g><g transform="matrix(.1547 0 0 .1547 69.836 101.04)"><circle cx="63.107" cy="92.478" r="3.232" fill="#986cc4"/></g><g transform="matrix(.1547 0 0 .1547 71.836 102.59)"><circle cx="63.107" cy="92.478" r="3.232" fill="#986cc4"/></g><g transform="matrix(.1547 0 0 .1547 71.836 89.27)"><circle cx="63.107" cy="92.478" r="3.232" fill="#986cc4"/></g><g transform="matrix(.1547 0 0 .1547 73.836 89.032)"><circle cx="63.107" cy="92.478" r="3.232" fill="#986cc4"/></g><g transform="matrix(.1547 0 0 .1547 73.836 90.955)"><circle cx="63.107" cy="92.478" r="3.232" fill="#986cc4"/></g><g transform="matrix(.1547 0 0 .1547 73.836 92.855)"><circle cx="63.107" cy="92.478" r="3.232" fill="#986cc4"/></g><g transform="matrix(.1547 0 0 .1547 73.836 94.755)"><circle cx="63.107" cy="92.478" r="3.232" fill="#986cc4"/></g><g transform="matrix(.1547 0 0 .1547 73.836 96.655)"><circle cx="63.107" cy="92.478" r="3.232" fill="#986cc4"/></g><g transform="matrix(.1547 0 0 .1547 73.836 98.555)"><circle cx="63.107" cy="92.478" r="3.232" fill="#986cc4"/></g><g transform="matrix(.1547 0 0 .1547 73.836 100.46)"><circle cx="63.107" cy="92.478" r="3.232" fill="#986cc4"/></g><g transform="matrix(.1547 0 0 .1547 73.836 102.36)"><circle cx="63.107" cy="92.478" r="3.232" fill="#986cc4"/></g><g transform="matrix(.1547 0 0 .1547 73.836 89.032)"><circle cx="63.107" cy="92.478" r="3.232" fill="#986cc4"/></g><g transform="matrix(.1547 0 0 .1547 73.836 88.932)"><circle cx="63.107" cy="92.478" r="3.232" fill="#986cc4"/></g><g transform="matrix(.1547 0 0 .1547 73.836 90.855)"><circle cx="63.107" cy="92.478" r="3.232" fill="#986cc4"/></g><g transform="matrix(.1547 0 0 .1547 73.836 92.755)"><circle cx="63.107" cy="92.478" r="3.232" fill="#986cc4"/></g><g transform="matrix(.1547 0 0 .1547 73.836 94.655)"><circle cx="63.107" cy="92.478" r="3.232" fill="#986cc4"/></g><g transform="matrix(.1547 0 0 .1547 73.836 96.555)"><circle cx="63.107" cy="92.478" r="3.232" fill="#986cc4"/></g><g transform="matrix(.1547 0 0 .1547 73.836 98.455)"><circle cx="63.107" cy="92.478" r="3.232" fill="#986cc4"/></g><g transform="matrix(.1547 0 0 .1547 73.836 100.36)"><circle cx="63.107" cy="92.478" r="3.232" fill="#986cc4"/></g><g transform="matrix(.1547 0 0 .1547 73.836 102.26)"><circle cx="63.107" cy="92.478" r="3.232" fill="#986cc4"/></g><g transform="matrix(.1547 0 0 .1547 73.836 88.932)"><circle cx="63.107" cy="92.478" r="3.232" fill="#986cc4"/></g><g transform="matrix(.1547 0 0 .1547 75.836 88.632)"><circle cx="63.107" cy="92.478" r="3.232" fill="#986cc4"/></g><g transform="matrix(.1547 0 0 .1547 75.836 90.555)"><circle cx="63.107" cy="92.478" r="3.232" fill="#986cc4"/></g><g transform="matrix(.1547 0 0 .1547 75.836 92.455)"><circle cx="63.107" cy="92.478" r="3.232" fill="#986cc4"/></g><g transform="matrix(.1547 0 0 .1547 75.836 94.355)"><circle cx="63.107" cy="92.478" r="3.232" fill="#986cc4"/></g><g transform="matrix(.1547 0 0 .1547 75.836 96.255)"><circle cx="63.107" cy="92.478" r="3.232" fill="#986cc4"/></g><g transform="matrix(.1547 0 0 .1547 75.836 98.155)"><circle cx="63.107" cy="92.478" r="3.232" fill="#986cc4"/></g><g transform="matrix(.1547 0 0 .1547 75.836 100.06)"><circle cx="63.107" cy="92.478" r="3.232" fill="#986cc4"/></g><g transform="matrix(.1547 0 0 .1547 75.836 101.96)"><circle cx="63.107" cy="92.478" r="3.232" fill="#986cc4"/></g><g transform="matrix(.1547 0 0 .1547 75.836 88.632)"><circle cx="63.107" cy="92.478" r="3.232" fill="#986cc4"/></g><g transform="matrix(.1547 0 0 .1547 77.836 88.332)"><circle cx="63.107" cy="92.478" r="3.232" fill="#986cc4"/></g><g transform="matrix(.1547 0 0 .1547 77.836 90.255)"><circle cx="63.107" cy="92.478" r="3.232" fill="#986cc4"/></g><g transform="matrix(.1547 0 0 .1547 77.836 92.155)"><circle cx="63.107" cy="92.478" r="3.232" fill="#986cc4"/></g><g transform="matrix(.1547 0 0 .1547 77.836 94.055)"><circle cx="63.107" cy="92.478" r="3.232" fill="#986cc4"/></g><g transform="matrix(.1547 0 0 .1547 77.836 95.955)"><circle cx="63.107" cy="92.478" r="3.232" fill="#986cc4"/></g><g transform="matrix(.1547 0 0 .1547 77.836 97.855)"><circle cx="63.107" cy="92.478" r="3.232" fill="#986cc4"/></g><g transform="matrix(.1547 0 0 .1547 77.836 99.755)"><circle cx="63.107" cy="92.478" r="3.232" fill="#986cc4"/></g><g transform="matrix(.1547 0 0 .1547 77.836 101.66)"><circle cx="63.107" cy="92.478" r="3.232" fill="#986cc4"/></g><g transform="matrix(.1547 0 0 .1547 77.836 88.332)"><circle cx="63.107" cy="92.478" r="3.232" fill="#986cc4"/></g><g transform="matrix(.1547 0 0 .1547 79.836 88.032)"><circle cx="63.107" cy="92.478" r="3.232" fill="#986cc4"/></g><g transform="matrix(.1547 0 0 .1547 79.836 89.955)"><circle cx="63.107" cy="92.478" r="3.232" fill="#986cc4"/></g><g transform="matrix(.1547 0 0 .1547 79.836 91.855)"><circle cx="63.107" cy="92.478" r="3.232" fill="#986cc4"/></g><g transform="matrix(.1547 0 0 .1547 79.836 93.755)"><circle cx="63.107" cy="92.478" r="3.232" fill="#986cc4"/></g><g transform="matrix(.1547 0 0 .1547 79.836 95.655)"><circle cx="63.107" cy="92.478" r="3.232" fill="#986cc4"/></g><g transform="matrix(.1547 0 0 .1547 79.836 97.555)"><circle cx="63.107" cy="92.478" r="3.232" fill="#986cc4"/></g><g transform="matrix(.1547 0 0 .1547 79.836 99.455)"><circle cx="63.107" cy="92.478" r="3.232" fill="#986cc4"/></g><g transform="matrix(.1547 0 0 .1547 79.836 101.36)"><circle cx="63.107" cy="92.478" r="3.232" fill="#986cc4"/></g><g transform="matrix(.1547 0 0 .1547 79.836 88.032)"><circle cx="63.107" cy="92.478" r="3.232" fill="#986cc4"/></g><g transform="matrix(.1547 0 0 .1547 81.836 87.732)"><circle cx="63.107" cy="92.478" r="3.232" fill="#986cc4"/></g><g transform="matrix(.1547 0 0 .1547 81.836 89.655)"><circle cx="63.107" cy="92.478" r="3.232" fill="#986cc4"/></g><g transform="matrix(.1547 0 0 .1547 81.836 91.555)"><circle cx="63.107" cy="92.478" r="3.232" fill="#986cc4"/></g><g transform="matrix(.1547 0 0 .1547 81.836 93.455)"><circle cx="63.107" cy="92.478" r="3.232" fill="#986cc4"/></g><g transform="matrix(.1547 0 0 .1547 81.836 95.355)"><circle cx="63.107" cy="92.478" r="3.232" fill="#986cc4"/></g><g transform="matrix(.1547 0 0 .1547 81.836 97.255)"><circle cx="63.107" cy="92.478" r="3.232" fill="#986cc4"/></g><g transform="matrix(.1547 0 0 .1547 81.836 99.155)"><circle cx="63.107" cy="92.478" r="3.232" fill="#986cc4"/></g><g transform="matrix(.1547 0 0 .1547 83.836 89.343)"><circle cx="63.107" cy="92.478" r="3.232" fill="#986cc4"/></g><g transform="matrix(.1547 0 0 .1547 83.836 91.243)"><circle cx="63.107" cy="92.478" r="3.232" fill="#986cc4"/></g><g transform="matrix(.1547 0 0 .1547 83.836 93.143)"><circle cx="63.107" cy="92.478" r="3.232" fill="#986cc4"/></g><g transform="matrix(.1547 0 0 .1547 83.836 95.043)"><circle cx="63.107" cy="92.478" r="3.232" fill="#986cc4"/></g><g transform="matrix(.1547 0 0 .1547 83.836 96.943)"><circle cx="63.107" cy="92.478" r="3.232" fill="#986cc4"/></g><g transform="matrix(.1547 0 0 .1547 83.836 98.843)"><circle cx="63.107" cy="92.478" r="3.232" fill="#986cc4"/></g><g transform="matrix(.1547 0 0 .1547 81.836 101.06)"><circle cx="63.107" cy="92.478" r="3.232" fill="#986cc4"/></g><g transform="matrix(.1547 0 0 .1547 81.836 87.732)"><circle cx="63.107" cy="92.478" r="3.232" fill="#986cc4"/></g><g transform="translate(0 4)"><path d="m94.012 10.181c0-1.193-0.969-2.162-2.162-2.162h-55.7c-1.193 0-2.162 0.969-2.162 2.162v46.472c0 1.193 0.969 2.161 2.162 2.161 18.567 3.225 37.133 3.175 55.7 0 1.193 0 2.162-0.968 2.162-2.161v-46.472z"/></g><g transform="translate(-7.1054e-15 -.39352)"><rect x="44.228" y="17.127" width="39.544" height="35.333" fill="#a4a6b4"/></g><circle cx="35.85" cy="27.827" r=".9" fill="#b80032"/></svg>
