<!DOCTYPE svg  PUBLIC '-//W3C//DTD SVG 1.1//EN'  'http://www.w3.org/Graphics/SVG/1.1/DTD/svg11.dtd'>
<svg clip-rule="evenodd" fill-rule="evenodd" stroke-linecap="round" stroke-linejoin="round" stroke-miterlimit="1.5" version="1.1" viewBox="0 0 128 128" xmlns="http://www.w3.org/2000/svg"><g transform="matrix(1.0113 0 0 1.0054 -.72143 -.16331)"><path d="m121.85 65.314c0-2.747-2.214-4.973-4.944-4.973h-105.81c-2.73 0-4.944 2.226-4.944 4.973v53.713c0 2.746 2.214 4.973 4.944 4.973h105.81c2.73 0 4.944-2.227 4.944-4.973v-53.713z" fill="#2e3342" stroke="#000" stroke-width="2.98px"/></g><g transform="matrix(1.0113 0 0 .86397 -.72143 -48.632)"><path d="m121.85 66.128c0-1.535-0.521-3.007-1.448-4.092-0.927-1.086-2.185-1.695-3.496-1.695h-105.81c-1.311 0-2.569 0.609-3.496 1.695-0.927 1.085-1.448 2.557-1.448 4.092v57.872h115.7v-57.872z" fill="#2e3342" stroke="#000" stroke-width="3.19px"/></g><g transform="matrix(13.502 0 0 1.0144 -17.631 .07987)"><path d="m10.286 63.95c0-1.905-0.116-3.45-0.26-3.45h-7.961c-0.143 0-0.259 1.545-0.259 3.45 0 1.906 0.116 3.451 0.259 3.451h7.961c0.144 0 0.26-1.545 0.26-3.451z" fill="#2e3342" stroke="#000" stroke-width=".1px"/></g><g transform="matrix(1.0888 0 0 1.1331 -5.9004 -12.826)"><path d="m91.294 76.186c0-0.468-0.193-0.917-0.538-1.248-0.344-0.331-0.811-0.517-1.299-0.517h-50.514c-0.488 0-0.955 0.186-1.299 0.517-0.345 0.331-0.538 0.78-0.538 1.248v36.184c0 0.468 0.193 0.917 0.538 1.248 0.344 0.331 0.811 0.517 1.299 0.517h50.514c0.488 0 0.955-0.186 1.299-0.517 0.345-0.331 0.538-0.78 0.538-1.248v-36.184z" stroke="#000" stroke-width=".9px"/></g><g transform="matrix(.97807 0 0 .98201 1.2081 1.4178)"><rect x="37.106" y="74.421" width="54.189" height="39.714" fill="#a4a6b4" stroke="#000" stroke-width="1.02px"/></g><g transform="translate(0 -61)"><g transform="matrix(1.0888 0 0 1.1331 -5.9004 -12.826)"><path d="m91.294 76.186c0-0.468-0.193-0.917-0.538-1.248-0.344-0.331-0.811-0.517-1.299-0.517h-50.514c-0.488 0-0.955 0.186-1.299 0.517-0.345 0.331-0.538 0.78-0.538 1.248v36.184c0 0.468 0.193 0.917 0.538 1.248 0.344 0.331 0.811 0.517 1.299 0.517h50.514c0.488 0 0.955-0.186 1.299-0.517 0.345-0.331 0.538-0.78 0.538-1.248v-36.184z" stroke="#000" stroke-width=".9px"/></g><g transform="matrix(.97807 0 0 .98201 1.2081 1.4178)"><rect x="37.106" y="74.421" width="54.189" height="39.714" fill="#a4a6b4" stroke="#000" stroke-width="1.02px"/></g></g><path d="m22.5 86.5h5v6h-5v5h-6v-5h-5v-6h5v-5h6v5z" fill="none" stroke="#000" stroke-width="1px"/><g transform="translate(.42002 .29357)"><circle cx="99.58" cy="107.71" r="1.643" fill="none" stroke="#000" stroke-width="1px"/></g><g transform="translate(.42002 7.2936)"><circle cx="99.58" cy="107.71" r="1.643" fill="none" stroke="#000" stroke-width="1px"/></g><g transform="matrix(.86008 0 0 .86008 15.472 13.142)"><circle cx="107.58" cy="92.849" r="4.651" fill="none" stroke="#000" stroke-width="1.16px"/></g><g transform="matrix(.86008 0 0 .86008 15.472 .14196)"><circle cx="107.58" cy="92.849" r="4.651" fill="none" stroke="#000" stroke-width="1.16px"/></g><g transform="matrix(.86008 0 0 .86008 8.9724 6.642)"><circle cx="107.58" cy="92.849" r="4.651" fill="none" stroke="#000" stroke-width="1.16px"/></g><g transform="matrix(.86008 0 0 .86008 21.972 6.642)"><circle cx="107.58" cy="92.849" r="4.651" fill="none" stroke="#000" stroke-width="1.16px"/></g><g transform="translate(-.50855 -.5)"><g transform="matrix(.5 0 0 .5 12.504 16)"><circle cx="25.009" cy="32" r="1"/></g><g transform="matrix(.5 0 0 .5 12.504 20)"><circle cx="25.009" cy="32" r="1"/></g><g transform="matrix(.5 0 0 .5 8.5043 16)"><circle cx="25.009" cy="32" r="1"/></g><g transform="matrix(.5 0 0 .5 4.5043 16)"><circle cx="25.009" cy="32" r="1"/></g><g transform="matrix(.5 0 0 .5 4.5043 20)"><circle cx="25.009" cy="32" r="1"/></g><g transform="matrix(.5 0 0 .5 8.5043 20)"><circle cx="25.009" cy="32" r="1"/></g></g><g transform="translate(86.492 -.5)"><g transform="matrix(.5 0 0 .5 12.504 16)"><circle cx="25.009" cy="32" r="1"/></g><g transform="matrix(.5 0 0 .5 12.504 20)"><circle cx="25.009" cy="32" r="1"/></g><g transform="matrix(.5 0 0 .5 8.5043 16)"><circle cx="25.009" cy="32" r="1"/></g><g transform="matrix(.5 0 0 .5 4.5043 16)"><circle cx="25.009" cy="32" r="1"/></g><g transform="matrix(.5 0 0 .5 4.5043 20)"><circle cx="25.009" cy="32" r="1"/></g><g transform="matrix(.5 0 0 .5 8.5043 20)"><circle cx="25.009" cy="32" r="1"/></g></g><g transform="translate(-1.7764e-15 -2)"><path d="m20.5 70v-7.579" fill="none" stroke="#000" stroke-width="1px"/></g><g transform="translate(87 -2)"><path d="m20.5 70v-7.579" fill="none" stroke="#000" stroke-width="1px"/></g><g transform="translate(.72161)"><path d="m115.78 65.95v-3.529" fill="none" stroke="#a0ff2a" stroke-width="1px"/></g><g transform="translate(-1.2784)"><path d="m115.78 65.95v-3.529" fill="none" stroke="#6a6a6a" stroke-width="1px"/></g><g transform="matrix(1 0 0 .79062 .5 14.149)"><path d="m64 62.421v2.529" fill="none" stroke="#000" stroke-width="1.11px"/></g></svg>
