<svg viewBox="0 0 128 128" xmlns="http://www.w3.org/2000/svg" xml:space="preserve" style="fill-rule:evenodd;clip-rule:evenodd;stroke-linecap:round;stroke-linejoin:round;stroke-miterlimit:1.5"><path style="fill:#d8d6d1;stroke:#000;stroke-width:2.56px" d="M13.324 16.625h101.352v94.75H13.324z" transform="matrix(1.17413 0 0 1.1715 -11.144 -8.976)"/><path style="fill:#d8d6d1;stroke:#000;stroke-width:2.62px" d="M29.324 13.125h69.352v105.75H29.324z" transform="matrix(1.1968 0 0 1.08747 -12.595 -7.773)"/><path d="M93.426 105.2c0-.662-.596-1.2-1.33-1.2H35.904c-.734 0-1.33.538-1.33 1.2V128h58.852v-22.8z" style="fill:none;stroke:#000;stroke-width:.73px" transform="matrix(1.24041 0 0 1.375 -15.386 -53.5)"/><path d="M27 79.375h74" style="fill:none;stroke:#000;stroke-width:.86px" transform="matrix(1.12162 0 0 1.11321 -7.784 -8.86)"/><path d="m11 26.625 16-.025" style="fill:none;stroke:#000;stroke-width:.86px" transform="matrix(1.125 0 0 1.11652 -7.375 -5.206)"/><path d="m11 26.625 16-.025" style="fill:none;stroke:#000;stroke-width:.86px" transform="matrix(1.125 0 0 1.11652 -7.375 6.78)"/><path d="m11 26.625 16-.025" style="fill:none;stroke:#000;stroke-width:.86px" transform="matrix(1.125 0 0 1.11652 -7.375 18.78)"/><path d="m11 26.625 16-.025" style="fill:none;stroke:#000;stroke-width:.86px" transform="matrix(1.125 0 0 1.11652 -7.375 30.78)"/><path d="m11 26.625 16-.025" style="fill:none;stroke:#000;stroke-width:.86px" transform="matrix(1.125 0 0 1.11652 -7.375 42.78)"/><path d="m11 26.625 16-.025" style="fill:none;stroke:#000;stroke-width:.86px" transform="matrix(1.125 0 0 1.11652 -7.375 54.78)"/><path d="m11 26.625 16-.025" style="fill:none;stroke:#000;stroke-width:.86px" transform="matrix(1.125 0 0 1.11652 -7.375 66.78)"/><path d="m11 26.625 16-.025" style="fill:none;stroke:#000;stroke-width:.86px" transform="matrix(1.125 0 0 1.11652 -7.375 78.78)"/><g><path d="m11 26.625 16-.025" style="fill:none;stroke:#000;stroke-width:.86px" transform="matrix(1.125 0 0 1.11652 92.625 -5.206)"/><path d="m11 26.625 16-.025" style="fill:none;stroke:#000;stroke-width:.86px" transform="matrix(1.125 0 0 1.11652 92.625 6.78)"/><path d="m11 26.625 16-.025" style="fill:none;stroke:#000;stroke-width:.86px" transform="matrix(1.125 0 0 1.11652 92.625 18.78)"/><path d="m11 26.625 16-.025" style="fill:none;stroke:#000;stroke-width:.86px" transform="matrix(1.125 0 0 1.11652 92.625 30.78)"/><path d="m11 26.625 16-.025" style="fill:none;stroke:#000;stroke-width:.86px" transform="matrix(1.125 0 0 1.11652 92.625 42.78)"/><path d="m11 26.625 16-.025" style="fill:none;stroke:#000;stroke-width:.86px" transform="matrix(1.125 0 0 1.11652 92.625 54.78)"/><path d="m11 26.625 16-.025" style="fill:none;stroke:#000;stroke-width:.86px" transform="matrix(1.125 0 0 1.11652 92.625 66.78)"/><path d="m11 26.625 16-.025" style="fill:none;stroke:#000;stroke-width:.86px" transform="matrix(1.125 0 0 1.11652 92.625 78.78)"/></g><g><path d="M98.526 55.513c0-2.008-1.67-3.638-3.728-3.638H33.202c-2.058 0-3.728 1.63-3.728 3.638v16.974c0 2.008 1.67 3.638 3.728 3.638h61.596c2.058 0 3.728-1.63 3.728-3.638V55.513z" style="fill:#fff;stroke:#000;stroke-width:.87px" transform="matrix(1.08613 0 0 1.1134 -5.512 -9.258)"/></g><g><path d="M88.526 41.125c-16.351 6.018-32.701 6.1-49.052 0V16.992h49.052v24.133z" style="fill:none;stroke:#000;stroke-width:.89px" transform="matrix(1.08047 0 0 1.0637 -5.15 -11.307)"/></g><g><path d="M39.474 35.169c16.351 6.1 32.701 6.017 49.052 0v5.956c-16.351 6.018-32.701 6.1-49.052 0v-5.956z" style="fill:#4e5247;stroke:#000;stroke-width:.88px" transform="matrix(1.08047 0 0 1.10238 -5.15 -7.057)"/></g><g><path d="M53.875 102.875v-13.5" style="fill:none;stroke:#000;stroke-width:.98px" transform="matrix(1 0 0 .96296 .625 3.435)"/><path d="M53.875 102.875v-13.5" style="fill:none;stroke:#000;stroke-width:.98px" transform="matrix(1 0 0 .96296 19.625 3.435)"/></g></svg>